<?xml version="1.0" standalone="no"?>
<!DOCTYPE svg PUBLIC "-//W3C//DTD SVG 20010904//EN"
 "http://www.w3.org/TR/2001/REC-SVG-20010904/DTD/svg10.dtd">
<svg version="1.0" xmlns="http://www.w3.org/2000/svg"
 width="304.000000pt" height="304.000000pt" viewBox="0 0 304.000000 304.000000"
 preserveAspectRatio="xMidYMid meet">
<metadata>
Created by potrace 1.14, written by Peter Selinger 2001-2017
</metadata>
<g transform="translate(0.000000,304.000000) scale(0.100000,-0.100000)"
fill="#000000" stroke="none">
<path d="M1924 2438 c-3 -4 -9 -6 -14 -3 -18 11 -211 -60 -289 -106 -29 -17
-57 -21 -220 -25 -102 -3 -197 -6 -211 -7 -14 0 -45 12 -69 27 -39 25 -102 56
-123 62 -5 1 -9 3 -10 4 -2 2 -18 4 -35 4 -18 1 -35 5 -39 8 -6 7 -49 -9 -72
-27 -27 -21 -70 -72 -110 -130 -15 -22 -30 -41 -34 -43 -5 -2 -8 -9 -8 -15 0
-7 -14 -27 -30 -46 -17 -18 -30 -39 -30 -46 0 -7 -13 -27 -29 -44 -16 -17 -27
-31 -25 -31 2 0 -4 -8 -13 -18 -33 -35 -53 -62 -53 -72 0 -6 -4 -10 -10 -10
-5 0 -10 -6 -10 -14 0 -8 -6 -21 -14 -28 -35 -36 -104 -204 -101 -247 1 -11
-2 -21 -7 -21 -4 0 -7 -3 -6 -7 3 -15 -14 -43 -22 -38 -5 3 -11 1 -15 -5 -4
-6 -11 -7 -17 -4 -6 4 -13 3 -17 -2 -3 -5 -15 -14 -26 -20 -21 -12 -55 -62
-60 -91 -2 -10 -4 -18 -5 -18 -7 0 -6 -136 0 -140 5 -3 6 -13 3 -24 -5 -18 42
-124 69 -156 43 -52 124 -112 160 -119 7 -2 20 -6 28 -9 8 -4 25 -8 37 -10 12
-2 55 -37 97 -78 41 -40 81 -79 88 -84 28 -23 118 -74 118 -68 0 3 8 -1 18
-10 10 -10 31 -18 45 -19 15 -1 27 -7 27 -12 0 -5 3 -7 6 -3 3 3 17 2 31 -4
13 -5 36 -11 51 -14 15 -3 38 -7 52 -10 113 -23 595 -24 617 -1 9 9 31 -20 30
-40 -2 -33 25 -92 48 -104 21 -11 58 -15 113 -11 32 2 79 53 114 126 16 35 35
65 41 68 7 2 39 3 72 3 52 -1 60 -4 63 -21 16 -101 126 -152 185 -85 26 29 57
91 57 114 0 9 4 16 9 16 5 0 11 9 14 20 5 21 63 51 81 44 6 -3 19 -23 29 -44
18 -39 22 -41 80 -43 21 -1 67 22 67 33 0 6 4 9 9 6 5 -3 17 11 26 31 17 36
21 57 29 159 2 31 17 80 40 127 20 42 36 82 36 90 0 7 5 18 12 25 7 7 9 12 5
12 -3 0 -2 11 3 24 5 13 11 41 15 63 3 21 8 50 11 63 23 104 23 588 0 699 -11
50 -56 95 -107 107 -13 3 -107 7 -209 9 -102 2 -185 4 -185 5 0 1 -13 3 -30 5
-64 8 -131 20 -145 25 -8 3 -24 7 -37 8 -12 2 -49 62 -39 62 12 0 -76 154 -96
168 -25 18 -56 23 -64 10z"/>
</g>
</svg>
